<mxfile host="app.diagrams.net" agent="Mozilla/5.0 (Windows NT 10.0; Win64; x64) AppleWebKit/537.36 (KHTML, like Gecko) Chrome/136.0.0.0 Safari/537.36 Edg/136.0.0.0" version="27.1.3">
  <diagram name="第 1 页" id="1fiDwTHrNMZpix3zNA36">
    <mxGraphModel dx="946" dy="549" grid="1" gridSize="10" guides="1" tooltips="1" connect="1" arrows="1" fold="1" page="1" pageScale="1" pageWidth="827" pageHeight="1169" math="0" shadow="0">
      <root>
        <mxCell id="0" />
        <mxCell id="1" parent="0" />
        <mxCell id="Sj0tfwVz-LecWqx-pxai-51" value="" style="rounded=1;whiteSpace=wrap;html=1;fillColor=none;dashed=1;dashPattern=12 12;fontSize=16;" vertex="1" parent="1">
          <mxGeometry x="430" y="245" width="340" height="340" as="geometry" />
        </mxCell>
        <mxCell id="QYo9lDrNAoCQKma_m_w6-10" value="" style="rounded=1;whiteSpace=wrap;html=1;fillColor=none;dashed=1;dashPattern=12 12;" parent="1" vertex="1">
          <mxGeometry x="10" y="245" width="130" height="340" as="geometry" />
        </mxCell>
        <mxCell id="QYo9lDrNAoCQKma_m_w6-11" value="同源异构数据集" style="text;html=1;align=center;verticalAlign=middle;whiteSpace=wrap;rounded=0;fontSize=16;" parent="1" vertex="1">
          <mxGeometry x="15" y="215" width="120" height="30" as="geometry" />
        </mxCell>
        <mxCell id="QYo9lDrNAoCQKma_m_w6-47" style="edgeStyle=orthogonalEdgeStyle;rounded=0;orthogonalLoop=1;jettySize=auto;html=1;exitX=1;exitY=0.5;exitDx=0;exitDy=0;entryX=0;entryY=0.5;entryDx=0;entryDy=0;" parent="1" source="QYo9lDrNAoCQKma_m_w6-22" target="QYo9lDrNAoCQKma_m_w6-40" edge="1">
          <mxGeometry relative="1" as="geometry" />
        </mxCell>
        <mxCell id="QYo9lDrNAoCQKma_m_w6-22" value="时域数据集" style="rounded=0;whiteSpace=wrap;html=1;fontSize=16;" parent="1" vertex="1">
          <mxGeometry x="24" y="275" width="100" height="25" as="geometry" />
        </mxCell>
        <mxCell id="QYo9lDrNAoCQKma_m_w6-46" style="edgeStyle=orthogonalEdgeStyle;rounded=0;orthogonalLoop=1;jettySize=auto;html=1;exitX=1;exitY=0.5;exitDx=0;exitDy=0;entryX=0;entryY=0.5;entryDx=0;entryDy=0;" parent="1" source="QYo9lDrNAoCQKma_m_w6-26" target="QYo9lDrNAoCQKma_m_w6-43" edge="1">
          <mxGeometry relative="1" as="geometry" />
        </mxCell>
        <mxCell id="QYo9lDrNAoCQKma_m_w6-26" value="频域数据集" style="rounded=0;whiteSpace=wrap;html=1;fontSize=16;" parent="1" vertex="1">
          <mxGeometry x="24" y="397.5" width="100" height="25" as="geometry" />
        </mxCell>
        <mxCell id="QYo9lDrNAoCQKma_m_w6-45" style="edgeStyle=orthogonalEdgeStyle;rounded=0;orthogonalLoop=1;jettySize=auto;html=1;exitX=1;exitY=0.5;exitDx=0;exitDy=0;entryX=0;entryY=0.5;entryDx=0;entryDy=0;" parent="1" source="QYo9lDrNAoCQKma_m_w6-35" target="QYo9lDrNAoCQKma_m_w6-44" edge="1">
          <mxGeometry relative="1" as="geometry" />
        </mxCell>
        <mxCell id="QYo9lDrNAoCQKma_m_w6-35" value="时频域数据集" style="rounded=0;whiteSpace=wrap;html=1;fontSize=16;" parent="1" vertex="1">
          <mxGeometry x="24" y="516" width="100" height="25" as="geometry" />
        </mxCell>
        <mxCell id="QYo9lDrNAoCQKma_m_w6-38" value="" style="rounded=1;whiteSpace=wrap;html=1;fillColor=none;dashed=1;dashPattern=12 12;fontSize=16;" parent="1" vertex="1">
          <mxGeometry x="170" y="245" width="240" height="340" as="geometry" />
        </mxCell>
        <mxCell id="QYo9lDrNAoCQKma_m_w6-39" value="卷积神经网络" style="text;html=1;align=center;verticalAlign=middle;whiteSpace=wrap;rounded=0;fontSize=16;" parent="1" vertex="1">
          <mxGeometry x="230" y="215" width="120" height="30" as="geometry" />
        </mxCell>
        <mxCell id="Sj0tfwVz-LecWqx-pxai-45" style="edgeStyle=orthogonalEdgeStyle;rounded=0;orthogonalLoop=1;jettySize=auto;html=1;exitX=1;exitY=0.5;exitDx=0;exitDy=0;entryX=0;entryY=0.5;entryDx=0;entryDy=0;" edge="1" parent="1" source="QYo9lDrNAoCQKma_m_w6-40" target="Sj0tfwVz-LecWqx-pxai-38">
          <mxGeometry relative="1" as="geometry" />
        </mxCell>
        <mxCell id="QYo9lDrNAoCQKma_m_w6-40" value="一维卷积&lt;div&gt;神经网络&lt;/div&gt;" style="rounded=0;whiteSpace=wrap;html=1;fontSize=16;" parent="1" vertex="1">
          <mxGeometry x="190" y="260" width="100" height="55" as="geometry" />
        </mxCell>
        <mxCell id="Sj0tfwVz-LecWqx-pxai-31" style="edgeStyle=orthogonalEdgeStyle;rounded=0;orthogonalLoop=1;jettySize=auto;html=1;exitX=1;exitY=0.5;exitDx=0;exitDy=0;entryX=0;entryY=0.5;entryDx=0;entryDy=0;" edge="1" parent="1" source="QYo9lDrNAoCQKma_m_w6-43" target="Sj0tfwVz-LecWqx-pxai-30">
          <mxGeometry relative="1" as="geometry" />
        </mxCell>
        <mxCell id="QYo9lDrNAoCQKma_m_w6-43" value="一维卷积&lt;div&gt;神经网络&lt;/div&gt;" style="rounded=0;whiteSpace=wrap;html=1;fontSize=16;" parent="1" vertex="1">
          <mxGeometry x="190" y="382.5" width="100" height="55" as="geometry" />
        </mxCell>
        <mxCell id="Sj0tfwVz-LecWqx-pxai-49" style="edgeStyle=orthogonalEdgeStyle;rounded=0;orthogonalLoop=1;jettySize=auto;html=1;exitX=1;exitY=0.5;exitDx=0;exitDy=0;entryX=0;entryY=0.5;entryDx=0;entryDy=0;" edge="1" parent="1" source="QYo9lDrNAoCQKma_m_w6-44" target="Sj0tfwVz-LecWqx-pxai-44">
          <mxGeometry relative="1" as="geometry" />
        </mxCell>
        <mxCell id="QYo9lDrNAoCQKma_m_w6-44" value="二维卷积&lt;div&gt;神经网络&lt;/div&gt;" style="rounded=0;whiteSpace=wrap;html=1;fontSize=16;" parent="1" vertex="1">
          <mxGeometry x="190" y="501" width="100" height="55" as="geometry" />
        </mxCell>
        <mxCell id="Sj0tfwVz-LecWqx-pxai-32" value="" style="group" vertex="1" connectable="0" parent="1">
          <mxGeometry x="340" y="370" width="85" height="210" as="geometry" />
        </mxCell>
        <mxCell id="Sj0tfwVz-LecWqx-pxai-8" value="" style="whiteSpace=wrap;html=1;aspect=fixed;container=0;" vertex="1" parent="Sj0tfwVz-LecWqx-pxai-32">
          <mxGeometry x="23.75" y="7.5" width="12.5" height="12.5" as="geometry" />
        </mxCell>
        <mxCell id="Sj0tfwVz-LecWqx-pxai-9" value="" style="whiteSpace=wrap;html=1;aspect=fixed;container=0;" vertex="1" parent="Sj0tfwVz-LecWqx-pxai-32">
          <mxGeometry x="23.75" y="22.5" width="12.5" height="12.5" as="geometry" />
        </mxCell>
        <mxCell id="Sj0tfwVz-LecWqx-pxai-10" value="" style="whiteSpace=wrap;html=1;aspect=fixed;container=0;" vertex="1" parent="Sj0tfwVz-LecWqx-pxai-32">
          <mxGeometry x="23.75" y="60" width="12.5" height="12.5" as="geometry" />
        </mxCell>
        <mxCell id="Sj0tfwVz-LecWqx-pxai-11" value="……" style="text;html=1;align=center;verticalAlign=middle;whiteSpace=wrap;rounded=0;container=0;" vertex="1" parent="Sj0tfwVz-LecWqx-pxai-32">
          <mxGeometry y="30" width="60" height="30" as="geometry" />
        </mxCell>
        <mxCell id="Sj0tfwVz-LecWqx-pxai-30" value="" style="rounded=0;whiteSpace=wrap;html=1;fillColor=none;strokeColor=none;container=0;" vertex="1" parent="Sj0tfwVz-LecWqx-pxai-32">
          <mxGeometry width="60" height="80" as="geometry" />
        </mxCell>
        <mxCell id="Sj0tfwVz-LecWqx-pxai-33" value="" style="group" vertex="1" connectable="0" parent="1">
          <mxGeometry x="341" y="247.5" width="60" height="80" as="geometry" />
        </mxCell>
        <mxCell id="Sj0tfwVz-LecWqx-pxai-34" value="" style="whiteSpace=wrap;html=1;aspect=fixed;container=0;" vertex="1" parent="Sj0tfwVz-LecWqx-pxai-33">
          <mxGeometry x="23.75" y="7.5" width="12.5" height="12.5" as="geometry" />
        </mxCell>
        <mxCell id="Sj0tfwVz-LecWqx-pxai-35" value="" style="whiteSpace=wrap;html=1;aspect=fixed;container=0;" vertex="1" parent="Sj0tfwVz-LecWqx-pxai-33">
          <mxGeometry x="23.75" y="22.5" width="12.5" height="12.5" as="geometry" />
        </mxCell>
        <mxCell id="Sj0tfwVz-LecWqx-pxai-36" value="" style="whiteSpace=wrap;html=1;aspect=fixed;container=0;" vertex="1" parent="Sj0tfwVz-LecWqx-pxai-33">
          <mxGeometry x="23.75" y="60" width="12.5" height="12.5" as="geometry" />
        </mxCell>
        <mxCell id="Sj0tfwVz-LecWqx-pxai-37" value="……" style="text;html=1;align=center;verticalAlign=middle;whiteSpace=wrap;rounded=0;container=0;" vertex="1" parent="Sj0tfwVz-LecWqx-pxai-33">
          <mxGeometry y="30" width="60" height="30" as="geometry" />
        </mxCell>
        <mxCell id="Sj0tfwVz-LecWqx-pxai-38" value="" style="rounded=0;whiteSpace=wrap;html=1;fillColor=none;strokeColor=none;container=0;" vertex="1" parent="Sj0tfwVz-LecWqx-pxai-33">
          <mxGeometry width="60" height="80" as="geometry" />
        </mxCell>
        <mxCell id="Sj0tfwVz-LecWqx-pxai-39" value="" style="group" vertex="1" connectable="0" parent="1">
          <mxGeometry x="340" y="488.5" width="60" height="80" as="geometry" />
        </mxCell>
        <mxCell id="Sj0tfwVz-LecWqx-pxai-40" value="" style="whiteSpace=wrap;html=1;aspect=fixed;container=0;" vertex="1" parent="Sj0tfwVz-LecWqx-pxai-39">
          <mxGeometry x="23.75" y="7.5" width="12.5" height="12.5" as="geometry" />
        </mxCell>
        <mxCell id="Sj0tfwVz-LecWqx-pxai-41" value="" style="whiteSpace=wrap;html=1;aspect=fixed;container=0;" vertex="1" parent="Sj0tfwVz-LecWqx-pxai-39">
          <mxGeometry x="23.75" y="22.5" width="12.5" height="12.5" as="geometry" />
        </mxCell>
        <mxCell id="Sj0tfwVz-LecWqx-pxai-42" value="" style="whiteSpace=wrap;html=1;aspect=fixed;container=0;" vertex="1" parent="Sj0tfwVz-LecWqx-pxai-39">
          <mxGeometry x="23.75" y="60" width="12.5" height="12.5" as="geometry" />
        </mxCell>
        <mxCell id="Sj0tfwVz-LecWqx-pxai-43" value="……" style="text;html=1;align=center;verticalAlign=middle;whiteSpace=wrap;rounded=0;container=0;" vertex="1" parent="Sj0tfwVz-LecWqx-pxai-39">
          <mxGeometry y="30" width="60" height="30" as="geometry" />
        </mxCell>
        <mxCell id="Sj0tfwVz-LecWqx-pxai-44" value="" style="rounded=0;whiteSpace=wrap;html=1;fillColor=none;strokeColor=none;container=0;" vertex="1" parent="Sj0tfwVz-LecWqx-pxai-39">
          <mxGeometry width="60" height="80" as="geometry" />
        </mxCell>
        <mxCell id="Sj0tfwVz-LecWqx-pxai-52" value="集成学习模型" style="text;html=1;align=center;verticalAlign=middle;whiteSpace=wrap;rounded=0;fontSize=16;" vertex="1" parent="1">
          <mxGeometry x="540" y="215" width="120" height="30" as="geometry" />
        </mxCell>
        <mxCell id="Sj0tfwVz-LecWqx-pxai-68" value="" style="group" vertex="1" connectable="0" parent="1">
          <mxGeometry x="440" y="370" width="90" height="81.25" as="geometry" />
        </mxCell>
        <mxCell id="Sj0tfwVz-LecWqx-pxai-54" value="" style="whiteSpace=wrap;html=1;aspect=fixed;container=0;" vertex="1" parent="Sj0tfwVz-LecWqx-pxai-68">
          <mxGeometry x="13.75" y="8.75" width="12.5" height="12.5" as="geometry" />
        </mxCell>
        <mxCell id="Sj0tfwVz-LecWqx-pxai-55" value="" style="whiteSpace=wrap;html=1;aspect=fixed;container=0;" vertex="1" parent="Sj0tfwVz-LecWqx-pxai-68">
          <mxGeometry x="13.75" y="23.75" width="12.5" height="12.5" as="geometry" />
        </mxCell>
        <mxCell id="Sj0tfwVz-LecWqx-pxai-56" value="" style="whiteSpace=wrap;html=1;aspect=fixed;container=0;" vertex="1" parent="Sj0tfwVz-LecWqx-pxai-68">
          <mxGeometry x="13.75" y="61.25" width="12.5" height="12.5" as="geometry" />
        </mxCell>
        <mxCell id="Sj0tfwVz-LecWqx-pxai-59" value="" style="whiteSpace=wrap;html=1;aspect=fixed;container=0;" vertex="1" parent="Sj0tfwVz-LecWqx-pxai-68">
          <mxGeometry x="37.5" y="8.75" width="12.5" height="12.5" as="geometry" />
        </mxCell>
        <mxCell id="Sj0tfwVz-LecWqx-pxai-60" value="" style="whiteSpace=wrap;html=1;aspect=fixed;container=0;" vertex="1" parent="Sj0tfwVz-LecWqx-pxai-68">
          <mxGeometry x="37.5" y="23.75" width="12.5" height="12.5" as="geometry" />
        </mxCell>
        <mxCell id="Sj0tfwVz-LecWqx-pxai-61" value="" style="whiteSpace=wrap;html=1;aspect=fixed;container=0;" vertex="1" parent="Sj0tfwVz-LecWqx-pxai-68">
          <mxGeometry x="37.5" y="61.25" width="12.5" height="12.5" as="geometry" />
        </mxCell>
        <mxCell id="Sj0tfwVz-LecWqx-pxai-62" value="……" style="text;html=1;align=center;verticalAlign=middle;whiteSpace=wrap;rounded=0;container=0;" vertex="1" parent="Sj0tfwVz-LecWqx-pxai-68">
          <mxGeometry x="13.75" y="31.25" width="60" height="30" as="geometry" />
        </mxCell>
        <mxCell id="Sj0tfwVz-LecWqx-pxai-63" value="" style="whiteSpace=wrap;html=1;aspect=fixed;container=0;" vertex="1" parent="Sj0tfwVz-LecWqx-pxai-68">
          <mxGeometry x="63.75" y="8.75" width="12.5" height="12.5" as="geometry" />
        </mxCell>
        <mxCell id="Sj0tfwVz-LecWqx-pxai-64" value="" style="whiteSpace=wrap;html=1;aspect=fixed;container=0;" vertex="1" parent="Sj0tfwVz-LecWqx-pxai-68">
          <mxGeometry x="63.75" y="23.75" width="12.5" height="12.5" as="geometry" />
        </mxCell>
        <mxCell id="Sj0tfwVz-LecWqx-pxai-65" value="" style="whiteSpace=wrap;html=1;aspect=fixed;container=0;" vertex="1" parent="Sj0tfwVz-LecWqx-pxai-68">
          <mxGeometry x="63.75" y="61.25" width="12.5" height="12.5" as="geometry" />
        </mxCell>
        <mxCell id="Sj0tfwVz-LecWqx-pxai-67" value="" style="rounded=0;whiteSpace=wrap;html=1;fillColor=none;strokeColor=none;" vertex="1" parent="Sj0tfwVz-LecWqx-pxai-68">
          <mxGeometry width="90" height="81.25" as="geometry" />
        </mxCell>
        <mxCell id="Sj0tfwVz-LecWqx-pxai-69" value="集成模型输入" style="text;html=1;align=center;verticalAlign=middle;whiteSpace=wrap;rounded=0;fontSize=16;" vertex="1" parent="1">
          <mxGeometry x="425" y="350" width="120" height="30" as="geometry" />
        </mxCell>
        <mxCell id="Sj0tfwVz-LecWqx-pxai-81" style="edgeStyle=orthogonalEdgeStyle;rounded=0;orthogonalLoop=1;jettySize=auto;html=1;exitX=1;exitY=0.5;exitDx=0;exitDy=0;" edge="1" parent="1" source="Sj0tfwVz-LecWqx-pxai-72" target="Sj0tfwVz-LecWqx-pxai-79">
          <mxGeometry relative="1" as="geometry" />
        </mxCell>
        <mxCell id="Sj0tfwVz-LecWqx-pxai-72" value="逻辑回归" style="rounded=0;whiteSpace=wrap;html=1;fontSize=16;" vertex="1" parent="1">
          <mxGeometry x="550" y="383.13" width="100" height="55" as="geometry" />
        </mxCell>
        <mxCell id="Sj0tfwVz-LecWqx-pxai-73" style="edgeStyle=orthogonalEdgeStyle;rounded=0;orthogonalLoop=1;jettySize=auto;html=1;exitX=1;exitY=0.5;exitDx=0;exitDy=0;entryX=0;entryY=0.5;entryDx=0;entryDy=0;" edge="1" parent="1" source="Sj0tfwVz-LecWqx-pxai-67" target="Sj0tfwVz-LecWqx-pxai-72">
          <mxGeometry relative="1" as="geometry" />
        </mxCell>
        <mxCell id="Sj0tfwVz-LecWqx-pxai-74" value="" style="group" vertex="1" connectable="0" parent="1">
          <mxGeometry x="680" y="370" width="60" height="80" as="geometry" />
        </mxCell>
        <mxCell id="Sj0tfwVz-LecWqx-pxai-75" value="" style="whiteSpace=wrap;html=1;aspect=fixed;container=0;" vertex="1" parent="Sj0tfwVz-LecWqx-pxai-74">
          <mxGeometry x="23.75" y="7.5" width="12.5" height="12.5" as="geometry" />
        </mxCell>
        <mxCell id="Sj0tfwVz-LecWqx-pxai-76" value="" style="whiteSpace=wrap;html=1;aspect=fixed;container=0;" vertex="1" parent="Sj0tfwVz-LecWqx-pxai-74">
          <mxGeometry x="23.75" y="22.5" width="12.5" height="12.5" as="geometry" />
        </mxCell>
        <mxCell id="Sj0tfwVz-LecWqx-pxai-77" value="" style="whiteSpace=wrap;html=1;aspect=fixed;container=0;" vertex="1" parent="Sj0tfwVz-LecWqx-pxai-74">
          <mxGeometry x="23.75" y="60" width="12.5" height="12.5" as="geometry" />
        </mxCell>
        <mxCell id="Sj0tfwVz-LecWqx-pxai-78" value="……" style="text;html=1;align=center;verticalAlign=middle;whiteSpace=wrap;rounded=0;container=0;" vertex="1" parent="Sj0tfwVz-LecWqx-pxai-74">
          <mxGeometry y="30" width="60" height="30" as="geometry" />
        </mxCell>
        <mxCell id="Sj0tfwVz-LecWqx-pxai-79" value="" style="rounded=0;whiteSpace=wrap;html=1;fillColor=none;strokeColor=none;container=0;" vertex="1" parent="Sj0tfwVz-LecWqx-pxai-74">
          <mxGeometry width="60" height="80" as="geometry" />
        </mxCell>
        <mxCell id="Sj0tfwVz-LecWqx-pxai-82" value="输出&lt;div&gt;（类型概率）&lt;/div&gt;" style="text;html=1;align=center;verticalAlign=middle;whiteSpace=wrap;rounded=0;fontSize=16;" vertex="1" parent="1">
          <mxGeometry x="650" y="338.5" width="120" height="30" as="geometry" />
        </mxCell>
      </root>
    </mxGraphModel>
  </diagram>
</mxfile>
